<svg xmlns="http://www.w3.org/2000/svg" viewBox="0 0 2048 2048" style="enable-background:new 0 0 2048 2048" xml:space="preserve"><path style="fill:#badb47" d="m1024 1792-39.985-41.568c-8.984-9.341-17.686-18.848-26.1-28.043-14.215-15.532-27.641-30.204-41.675-43.379-22.132-20.777-50.068-39.128-85.402-56.099-17.115-8.229-34.498-16.016-52.903-24.261l-.296-.133c-26.6-11.923-54.105-24.253-82.038-38.46-69.603-35.422-125.084-76.753-169.625-126.361a490.672 490.672 0 0 1-79.563-120.29c-20.669-44.265-34.417-90.942-40.862-138.733-2.383-17.724-3.861-36.657-4.521-57.901l-.027-.883v-.885l.496-589.923 50.05-4.883c204.284-19.932 394.328-101.644 535.123-230.085L1024.068 256l37.391 34.117c140.752 128.424 330.749 210.132 534.993 230.072l50.047 4.886.497 590.815-.028.883c-.659 21.244-2.137 40.177-4.518 57.88-6.447 47.812-20.196 94.489-40.865 138.754-20.449 43.793-47.219 84.265-79.563 120.289-44.541 49.608-100.022 90.939-169.614 126.355-27.95 14.217-55.462 26.549-82.069 38.475l-.265.118c-18.415 8.25-35.798 16.037-52.895 24.257-35.352 16.98-63.288 35.331-85.423 56.109-14.03 13.172-27.456 27.843-41.67 43.375-8.415 9.195-17.117 18.704-26.102 28.045L1024 1792z"/><path style="fill:#92ca32" d="M1023.999 1541.511c-32.906-28.692-71.566-53.545-117.7-75.703-19.167-9.214-37.577-17.461-57.066-26.194l-.227-.102c-25.952-11.632-50.304-22.548-74.384-34.797-50.096-25.496-89.019-54.109-118.963-87.457a316.666 316.666 0 0 1-51.329-77.595c-13.202-28.274-21.969-57.978-26.056-88.281-1.509-11.222-2.489-23.762-2.982-38.216l.365-434.99c164.955-31.688 319.163-98.27 448.4-193.599 129.2 95.31 283.371 161.892 448.283 193.582l.367 434.985c-.494 14.459-1.471 26.998-2.99 38.28-4.079 30.256-12.846 59.966-26.052 88.244a316.521 316.521 0 0 1-51.327 77.591c-29.942 33.348-68.861 61.959-118.982 87.466-24.108 12.262-48.49 23.191-74.304 34.761l-.484.217c-19.424 8.703-37.773 16.926-56.898 26.118-46.102 22.143-84.764 46.997-117.671 75.69z"/><circle style="fill:#f3f6ff" cx="1024" cy="1003.355" r="236.904"/><path style="fill:#92ca32" d="M991.302 1108.716c-12.215 0-24.428-4.659-33.747-13.978l-49.877-49.877c-18.637-18.639-18.637-48.856 0-67.495 18.639-18.639 48.856-18.639 67.495 0l16.13 16.13 81.525-81.525c18.639-18.639 48.856-18.639 67.495 0 18.637 18.639 18.637 48.856 0 67.495l-115.273 115.273c-9.32 9.319-21.533 13.977-33.748 13.977z"/></svg>