<svg width="588" height="112" viewBox="0 0 588 112" fill="none" xmlns="http://www.w3.org/2000/svg">
<path d="M12.874 83C10.4687 83 8.58267 82.344 7.216 81.032C5.904 79.6653 5.248 77.7793 5.248 75.374V32.734C5.248 30.274 5.904 28.388 7.216 27.076C8.528 25.764 10.3867 25.108 12.792 25.108C15.252 25.108 17.1107 25.764 18.368 27.076C19.68 28.388 20.336 30.274 20.336 32.734V70.454H40.344C42.4213 70.454 44.0067 71.0007 45.1 72.094C46.248 73.1327 46.822 74.6633 46.822 76.686C46.822 78.7087 46.248 80.2667 45.1 81.36C44.0067 82.4533 42.4213 83 40.344 83H12.874ZM73.8064 83.902C68.8864 83.902 64.6224 83.0547 61.0144 81.36C57.4611 79.6107 54.7277 77.1507 52.8144 73.98C50.9011 70.8093 49.9444 67.0647 49.9444 62.746C49.9444 58.5913 50.8464 54.956 52.6504 51.84C54.5091 48.6693 57.0237 46.2093 60.1944 44.46C63.4197 42.656 67.0824 41.754 71.1824 41.754C74.1891 41.754 76.9224 42.246 79.3824 43.23C81.8424 44.1593 83.9471 45.5533 85.6964 47.412C87.4457 49.216 88.7577 51.4027 89.6324 53.972C90.5617 56.5413 91.0264 59.4113 91.0264 62.582C91.0264 63.6753 90.7257 64.4953 90.1244 65.042C89.5231 65.534 88.5664 65.78 87.2544 65.78H62.1624V58.892H80.3664L79.0544 59.958C79.0544 57.9353 78.7811 56.2953 78.2344 55.038C77.6877 53.7807 76.8677 52.824 75.7744 52.168C74.7357 51.512 73.4237 51.184 71.8384 51.184C70.1437 51.184 68.6677 51.594 67.4104 52.414C66.2077 53.1793 65.2784 54.3273 64.6224 55.858C63.9664 57.3887 63.6384 59.302 63.6384 61.598V62.336C63.6384 66.2173 64.4857 69.0053 66.1804 70.7C67.9297 72.34 70.6084 73.16 74.2164 73.16C75.4191 73.16 76.7857 73.0233 78.3164 72.75C79.9017 72.422 81.4051 71.9847 82.8264 71.438C84.2477 70.8913 85.4777 70.8093 86.5164 71.192C87.5551 71.52 88.3477 72.1213 88.8944 72.996C89.4957 73.816 89.8237 74.7727 89.8784 75.866C89.9331 76.9047 89.6871 77.9433 89.1404 78.982C88.5937 79.966 87.6917 80.7313 86.4344 81.278C84.5211 82.1527 82.4711 82.8087 80.2844 83.246C78.1524 83.6833 75.9931 83.902 73.8064 83.902ZM111.337 83.902C108.221 83.902 105.46 83.328 103.055 82.18C100.704 81.032 98.8454 79.474 97.4788 77.506C96.1668 75.4833 95.5108 73.1873 95.5108 70.618C95.5108 67.666 96.2761 65.3427 97.8068 63.648C99.3374 61.9533 101.797 60.7507 105.187 60.04C108.576 59.2747 113.086 58.892 118.717 58.892H123.227V65.78H118.717C116.585 65.78 114.808 65.944 113.387 66.272C112.02 66.5453 111.009 67.01 110.353 67.666C109.697 68.2673 109.369 69.06 109.369 70.044C109.369 71.3013 109.806 72.34 110.681 73.16C111.61 73.98 112.922 74.39 114.617 74.39C115.983 74.39 117.186 74.0893 118.225 73.488C119.318 72.8867 120.193 72.0667 120.849 71.028C121.505 69.9347 121.833 68.6773 121.833 67.256V57.744C121.833 55.776 121.313 54.382 120.275 53.562C119.291 52.742 117.569 52.332 115.109 52.332C113.797 52.332 112.321 52.496 110.681 52.824C109.041 53.0973 107.209 53.6167 105.187 54.382C103.711 54.9287 102.453 55.0107 101.415 54.628C100.376 54.2453 99.5561 53.5893 98.9548 52.66C98.4081 51.7307 98.1348 50.7193 98.1348 49.626C98.1894 48.5327 98.5448 47.494 99.2008 46.51C99.9114 45.526 100.977 44.7607 102.399 44.214C105.023 43.23 107.428 42.574 109.615 42.246C111.856 41.918 113.906 41.754 115.765 41.754C120.247 41.754 123.937 42.41 126.835 43.722C129.787 44.9793 131.973 46.9473 133.395 49.626C134.871 52.25 135.609 55.6393 135.609 59.794V76.358C135.609 78.7633 135.035 80.5947 133.887 81.852C132.739 83.1093 131.071 83.738 128.885 83.738C126.643 83.738 124.921 83.1093 123.719 81.852C122.571 80.5947 121.997 78.7633 121.997 76.358V74.226L122.489 75.374C122.215 77.1233 121.587 78.6267 120.603 79.884C119.619 81.1413 118.334 82.1253 116.749 82.836C115.163 83.5467 113.359 83.902 111.337 83.902ZM151.382 83.738C148.977 83.738 147.118 83.1093 145.806 81.852C144.549 80.5947 143.92 78.7633 143.92 76.358V49.216C143.92 46.8653 144.522 45.0613 145.724 43.804C146.982 42.5467 148.758 41.918 151.054 41.918C153.35 41.918 155.1 42.5467 156.302 43.804C157.505 45.0613 158.106 46.8653 158.106 49.216V52.578H157.286C157.833 49.298 159.227 46.7013 161.468 44.788C163.764 42.8747 166.607 41.8633 169.996 41.754C171.582 41.6993 172.757 42.1093 173.522 42.984C174.342 43.804 174.78 45.362 174.834 47.658C174.834 49.626 174.424 51.184 173.604 52.332C172.784 53.48 171.226 54.1633 168.93 54.382L167.044 54.546C164.147 54.8193 162.042 55.6393 160.73 57.006C159.418 58.318 158.762 60.286 158.762 62.91V76.358C158.762 78.7633 158.134 80.5947 156.876 81.852C155.619 83.1093 153.788 83.738 151.382 83.738ZM186.691 83.738C184.395 83.738 182.618 83.1093 181.361 81.852C180.104 80.5947 179.475 78.7633 179.475 76.358V49.216C179.475 46.8653 180.076 45.0613 181.279 43.804C182.536 42.5467 184.313 41.918 186.609 41.918C188.905 41.918 190.654 42.5467 191.857 43.804C193.06 45.0613 193.661 46.8653 193.661 49.216V53.07L192.759 49.708C194.071 47.1387 195.93 45.1707 198.335 43.804C200.795 42.4373 203.583 41.754 206.699 41.754C209.924 41.754 212.576 42.3827 214.653 43.64C216.73 44.8427 218.288 46.756 219.327 49.38C220.366 51.9493 220.885 55.202 220.885 59.138V76.358C220.885 78.7633 220.256 80.5947 218.999 81.852C217.742 83.1093 215.938 83.738 213.587 83.738C211.236 83.738 209.432 83.1093 208.175 81.852C206.918 80.5947 206.289 78.7633 206.289 76.358V59.712C206.289 57.252 205.852 55.5027 204.977 54.464C204.157 53.4253 202.927 52.906 201.287 52.906C199.1 52.906 197.351 53.6167 196.039 55.038C194.727 56.4047 194.071 58.2633 194.071 60.614V76.358C194.071 81.278 191.611 83.738 186.691 83.738Z" fill="black"/>
<g clip-path="url(#clip0_40_62)">
<path fill-rule="evenodd" clip-rule="evenodd" d="M259.338 85.0072C263.236 97.1842 274.648 106 288.119 106C301.62 106 313.052 97.1445 316.925 84.9251C329.145 81.0522 338 69.6195 338 56.1185C338 42.6477 329.184 31.236 317.007 27.338C313.216 14.9828 301.716 6 288.119 6C274.551 6 263.072 14.9427 259.255 27.2553C246.943 31.0724 238 42.5511 238 56.1185C238 69.7163 246.983 81.216 259.338 85.0072ZM291.221 59.221C290.206 59.3566 289.171 59.4265 288.119 59.4265C286.983 59.4265 285.866 59.345 284.775 59.1875C284.642 58.1833 284.573 57.1589 284.573 56.1185C284.573 54.9945 284.653 53.8891 284.808 52.8078C285.889 52.6533 286.995 52.5735 288.119 52.5735C289.159 52.5735 290.183 52.6419 291.187 52.7745C291.345 53.8664 291.427 54.9829 291.427 56.1185C291.427 57.1705 291.357 58.2061 291.221 59.221ZM289.025 66.4132C288.724 66.4221 288.422 66.4265 288.119 66.4265C287.734 66.4265 287.352 66.4194 286.971 66.4052C287.286 67.0416 287.63 67.6614 288 68.2631C288.369 67.664 288.711 67.0468 289.025 66.4132ZM292.727 73.784C294.617 71.1653 296.098 68.2315 297.076 65.0765C300.232 64.0984 303.165 62.6172 305.784 60.7266C309.243 64.7805 311.332 70.0397 311.332 75.7867C311.332 76.9108 311.252 78.0161 311.098 79.0975C310.016 79.2519 308.911 79.3318 307.787 79.3318C302.04 79.3318 296.781 77.2433 292.727 73.784ZM283.273 73.784C281.366 71.1424 279.876 68.1802 278.898 64.9937C275.843 64.0157 272.999 62.5646 270.453 60.7266C266.994 64.7805 264.905 70.0397 264.905 75.7867C264.905 76.9223 264.987 78.0388 265.144 79.1307C266.148 79.2633 267.173 79.3318 268.213 79.3318C273.96 79.3318 279.219 77.2433 283.273 73.784ZM267.428 86.3217C267.689 86.3284 267.951 86.3318 268.213 86.3318C275.781 86.3318 282.699 83.5493 288 78.9517C293.301 83.5493 300.219 86.3318 307.787 86.3318C308.13 86.3318 308.472 86.326 308.813 86.3147C304.975 93.8437 297.149 99 288.119 99C279.091 99 271.267 93.8469 267.428 86.3217ZM257.927 76.9339C257.912 76.5533 257.905 76.1708 257.905 75.7867C257.905 68.2189 260.688 61.3009 265.285 56C260.688 50.6991 257.905 43.7811 257.905 36.2133C257.905 35.9101 257.91 35.608 257.919 35.3071C250.263 39.1013 245 46.9952 245 56.1185C245 65.2449 250.267 73.1412 257.927 76.9339ZM265.111 33.1107C264.975 34.1256 264.905 35.1613 264.905 36.2133C264.905 41.9602 266.994 47.2194 270.453 51.2733C273.022 49.4189 275.894 47.9584 278.98 46.9801C279.958 43.8936 281.419 41.0217 283.273 38.453C279.219 34.9936 273.96 32.9052 268.213 32.9052C267.161 32.9052 266.126 32.9752 265.111 33.1107ZM288 43.9738C287.677 44.4992 287.374 45.0385 287.093 45.5905C287.433 45.5792 287.775 45.5735 288.119 45.5735C288.381 45.5735 288.643 45.5768 288.904 45.5835C288.623 45.0339 288.322 44.497 288 43.9738ZM292.727 38.453C294.565 40.9989 296.016 43.8427 296.994 46.898C300.18 47.8758 303.142 49.3663 305.784 51.2733C309.243 47.2194 311.332 41.9602 311.332 36.2133C311.332 35.1729 311.263 34.1485 311.131 33.1443C310.039 32.9867 308.922 32.9052 307.787 32.9052C302.04 32.9052 296.781 34.9936 292.727 38.453ZM298.405 54.9713C299.042 55.2864 299.662 55.6299 300.263 56C299.664 56.3686 299.047 56.7107 298.413 57.0247C298.422 56.7237 298.427 56.4216 298.427 56.1185C298.427 55.7344 298.419 55.352 298.405 54.9713ZM288 33.2853C293.301 28.6876 300.219 25.9052 307.787 25.9052C308.171 25.9052 308.553 25.9124 308.934 25.9266C305.141 18.2667 297.245 13 288.119 13C278.995 13 271.101 18.263 267.307 25.9185C267.608 25.9097 267.91 25.9052 268.213 25.9052C275.781 25.9052 282.699 28.6876 288 33.2853ZM277.573 56.1185C277.573 56.3811 277.577 56.6428 277.584 56.9038C277.034 56.6234 276.497 56.3218 275.974 56C276.499 55.6768 277.039 55.374 277.591 55.0926C277.579 55.4332 277.573 55.7752 277.573 56.1185ZM318.332 36.2133C318.332 35.9507 318.328 35.6889 318.322 35.428C325.847 39.2672 331 47.0911 331 56.1185C331 65.1487 325.844 72.9747 318.315 76.8126C318.326 76.4721 318.332 76.1301 318.332 75.7867C318.332 68.2189 315.549 61.3009 310.952 56C315.549 50.6991 318.332 43.7811 318.332 36.2133Z" fill="#34d399"/>
</g>
<path d="M408.892 90.298C409.876 91.938 410.231 93.414 409.958 94.726C409.685 96.0927 409.001 97.2407 407.908 98.17C406.869 99.0993 405.612 99.7007 404.136 99.974C402.715 100.247 401.293 100.111 399.872 99.564C398.451 99.0173 397.275 97.9787 396.346 96.448L390.278 86.69C389.677 85.706 388.884 84.9953 387.9 84.558C386.916 84.1207 385.631 83.902 384.046 83.902L395.28 79.72C397.74 79.72 399.817 80.1847 401.512 81.114C403.207 81.9887 404.655 83.4373 405.858 85.46L408.892 90.298ZM384.128 83.902C378.279 83.902 373.14 82.672 368.712 80.212C364.284 77.6973 360.84 74.1987 358.38 69.716C355.975 65.2333 354.772 60.0127 354.772 54.054C354.772 49.5713 355.455 45.4987 356.822 41.836C358.243 38.1733 360.239 35.03 362.808 32.406C365.432 29.782 368.548 27.7867 372.156 26.42C375.764 24.9987 379.755 24.288 384.128 24.288C389.977 24.288 395.089 25.518 399.462 27.978C403.89 30.438 407.334 33.9093 409.794 38.392C412.254 42.82 413.484 48.0407 413.484 54.054C413.484 58.5367 412.773 62.6093 411.352 66.272C409.985 69.9347 407.99 73.1053 405.366 75.784C402.797 78.408 399.708 80.4307 396.1 81.852C392.492 83.2187 388.501 83.902 384.128 83.902ZM384.128 71.274C387.025 71.274 389.485 70.5907 391.508 69.224C393.531 67.8573 395.089 65.8893 396.182 63.32C397.275 60.7507 397.822 57.662 397.822 54.054C397.822 48.642 396.619 44.4327 394.214 41.426C391.809 38.4193 388.447 36.916 384.128 36.916C381.285 36.916 378.825 37.5993 376.748 38.966C374.725 40.278 373.167 42.2187 372.074 44.788C370.981 47.3027 370.434 50.3913 370.434 54.054C370.434 59.466 371.637 63.7027 374.042 66.764C376.447 69.7707 379.809 71.274 384.128 71.274ZM436.497 83.902C432.998 83.902 430.128 83.2733 427.887 82.016C425.645 80.704 423.951 78.7633 422.803 76.194C421.709 73.6247 421.163 70.372 421.163 66.436V49.216C421.163 46.8107 421.791 45.0067 423.049 43.804C424.306 42.5467 426.11 41.918 428.461 41.918C430.811 41.918 432.615 42.5467 433.873 43.804C435.13 45.0067 435.759 46.8107 435.759 49.216V66.846C435.759 68.814 436.169 70.29 436.989 71.274C437.809 72.258 439.093 72.75 440.843 72.75C442.811 72.75 444.423 72.0393 445.681 70.618C446.938 69.1967 447.567 67.3107 447.567 64.96V49.216C447.567 46.8107 448.195 45.0067 449.453 43.804C450.71 42.5467 452.514 41.918 454.865 41.918C457.215 41.918 459.019 42.5467 460.277 43.804C461.534 45.0067 462.163 46.8107 462.163 49.216V76.358C462.163 81.278 459.812 83.738 455.111 83.738C452.815 83.738 451.038 83.1093 449.781 81.852C448.523 80.5947 447.895 78.7633 447.895 76.358V71.602L449.207 75.62C448.004 78.2987 446.309 80.3487 444.123 81.77C441.991 83.1913 439.449 83.902 436.497 83.902ZM492.633 83.902C487.713 83.902 483.449 83.0547 479.841 81.36C476.287 79.6107 473.554 77.1507 471.641 73.98C469.727 70.8093 468.771 67.0647 468.771 62.746C468.771 58.5913 469.673 54.956 471.477 51.84C473.335 48.6693 475.85 46.2093 479.021 44.46C482.246 42.656 485.909 41.754 490.009 41.754C493.015 41.754 495.749 42.246 498.209 43.23C500.669 44.1593 502.773 45.5533 504.523 47.412C506.272 49.216 507.584 51.4027 508.459 53.972C509.388 56.5413 509.853 59.4113 509.853 62.582C509.853 63.6753 509.552 64.4953 508.951 65.042C508.349 65.534 507.393 65.78 506.081 65.78H480.989V58.892H499.193L497.881 59.958C497.881 57.9353 497.607 56.2953 497.061 55.038C496.514 53.7807 495.694 52.824 494.601 52.168C493.562 51.512 492.25 51.184 490.665 51.184C488.97 51.184 487.494 51.594 486.237 52.414C485.034 53.1793 484.105 54.3273 483.449 55.858C482.793 57.3887 482.465 59.302 482.465 61.598V62.336C482.465 66.2173 483.312 69.0053 485.007 70.7C486.756 72.34 489.435 73.16 493.043 73.16C494.245 73.16 495.612 73.0233 497.143 72.75C498.728 72.422 500.231 71.9847 501.653 71.438C503.074 70.8913 504.304 70.8093 505.343 71.192C506.381 71.52 507.174 72.1213 507.721 72.996C508.322 73.816 508.65 74.7727 508.705 75.866C508.759 76.9047 508.513 77.9433 507.967 78.982C507.42 79.966 506.518 80.7313 505.261 81.278C503.347 82.1527 501.297 82.8087 499.111 83.246C496.979 83.6833 494.819 83.902 492.633 83.902ZM532.213 83.902C529.808 83.902 527.348 83.7107 524.833 83.328C522.373 83 520.132 82.3713 518.109 81.442C516.742 80.8953 515.758 80.1573 515.157 79.228C514.61 78.2987 514.337 77.3147 514.337 76.276C514.392 75.2373 514.692 74.308 515.239 73.488C515.84 72.6133 516.606 72.012 517.535 71.684C518.519 71.3013 519.612 71.3287 520.815 71.766C523.111 72.586 525.161 73.1873 526.965 73.57C528.824 73.898 530.6 74.062 532.295 74.062C534.318 74.062 535.766 73.7887 536.641 73.242C537.516 72.6407 537.953 71.8753 537.953 70.946C537.953 70.126 537.652 69.4973 537.051 69.06C536.504 68.6227 535.712 68.322 534.673 68.158L525.571 66.682C522.182 66.0807 519.558 64.8507 517.699 62.992C515.84 61.0787 514.911 58.5913 514.911 55.53C514.911 52.6873 515.704 50.2547 517.289 48.232C518.929 46.1547 521.143 44.5693 523.931 43.476C526.774 42.328 530.026 41.754 533.689 41.754C536.149 41.754 538.39 41.9453 540.413 42.328C542.436 42.656 544.404 43.2847 546.317 44.214C547.52 44.706 548.367 45.4167 548.859 46.346C549.351 47.2753 549.542 48.2593 549.433 49.298C549.324 50.282 548.968 51.2113 548.367 52.086C547.82 52.906 547.055 53.48 546.071 53.808C545.087 54.0813 543.939 53.9993 542.627 53.562C540.823 52.8513 539.21 52.332 537.789 52.004C536.422 51.676 535.138 51.512 533.935 51.512C531.694 51.512 530.108 51.8127 529.179 52.414C528.25 53.0153 527.785 53.7807 527.785 54.71C527.785 55.4207 528.031 56.022 528.523 56.514C529.015 56.9513 529.78 57.252 530.819 57.416L539.921 58.974C543.42 59.5207 546.098 60.7233 547.957 62.582C549.87 64.386 550.827 66.846 550.827 69.962C550.827 74.39 549.132 77.834 545.743 80.294C542.354 82.6993 537.844 83.902 532.213 83.902ZM577.576 83.902C573.476 83.902 570.087 83.2733 567.408 82.016C564.784 80.7587 562.816 78.8727 561.504 76.358C560.192 73.7887 559.536 70.5907 559.536 66.764V53.398H556.748C554.999 53.398 553.632 52.9333 552.648 52.004C551.719 51.0747 551.254 49.7353 551.254 47.986C551.254 46.2367 551.719 44.9247 552.648 44.05C553.632 43.1207 554.999 42.656 556.748 42.656H559.536V37.572C559.536 35.1667 560.165 33.3353 561.422 32.078C562.68 30.8207 564.484 30.192 566.834 30.192C569.185 30.192 570.989 30.8207 572.246 32.078C573.504 33.3353 574.132 35.1667 574.132 37.572V42.656H580.856C582.66 42.656 584.027 43.1207 584.956 44.05C585.94 44.9247 586.432 46.2367 586.432 47.986C586.432 49.7353 585.94 51.0747 584.956 52.004C584.027 52.9333 582.66 53.398 580.856 53.398H574.132V66.272C574.132 68.2947 574.597 69.798 575.526 70.782C576.51 71.7113 578.041 72.176 580.118 72.176C580.884 72.176 581.622 72.094 582.332 71.93C583.043 71.766 583.699 71.684 584.3 71.684C585.175 71.6293 585.886 71.9027 586.432 72.504C586.979 73.0507 587.252 74.3353 587.252 76.358C587.252 77.998 587.006 79.392 586.514 80.54C586.022 81.6333 585.148 82.426 583.89 82.918C583.125 83.1913 582.086 83.41 580.774 83.574C579.462 83.7927 578.396 83.902 577.576 83.902Z" fill="black"/>
<defs>
<clipPath id="clip0_40_62">
<rect width="100" height="100" fill="white" transform="translate(238 6)"/>
</clipPath>
</defs>
</svg>
