<svg width="128" height="128" viewBox="0 0 128 128" fill="none" xmlns="http://www.w3.org/2000/svg">
<circle cx="60.7768" cy="62.7768" r="60.7768" fill="#F5F8FF"/>
<circle cx="60.7769" cy="62.7769" r="47.2709" fill="#E4ECFE"/>
<rect width="22.4026" height="3.86252" rx="1.93126" transform="matrix(-0.707107 0.707107 0.707107 0.707107 117.968 45.8482)" fill="#BD3838"/>
<rect width="22.4026" height="3.86252" rx="1.93126" transform="matrix(-0.707107 0.707107 0.707107 0.707107 117.968 45.8482)" fill="#BD3838"/>
<rect width="22.4026" height="3.86252" rx="1.93126" transform="matrix(-0.707107 0.707107 0.707107 0.707107 117.968 45.8482)" fill="#BD3838"/>
<rect width="22.4026" height="3.86252" rx="1.93126" transform="matrix(-0.707107 0.707107 0.707107 0.707107 117.968 45.8482)" fill="#1A3166"/>
<rect width="22.4026" height="3.86252" rx="1.93126" transform="matrix(0.707107 0.707107 0.707107 -0.707107 102.127 48.5793)" fill="#BD3838"/>
<rect width="22.4026" height="3.86252" rx="1.93126" transform="matrix(0.707107 0.707107 0.707107 -0.707107 102.127 48.5793)" fill="#BD3838"/>
<rect width="22.4026" height="3.86252" rx="1.93126" transform="matrix(0.707107 0.707107 0.707107 -0.707107 102.127 48.5793)" fill="#BD3838"/>
<rect width="22.4026" height="3.86252" rx="1.93126" transform="matrix(0.707107 0.707107 0.707107 -0.707107 102.127 48.5793)" fill="#1A3166"/>
<rect width="14.7292" height="2.53951" rx="1.26976" transform="matrix(-0.707107 0.707107 0.707107 0.707107 44.2726 13.6559)" fill="#BD3838"/>
<rect width="14.7292" height="2.53951" rx="1.26976" transform="matrix(-0.707107 0.707107 0.707107 0.707107 44.2726 13.6559)" fill="#BD3838"/>
<rect width="14.7292" height="2.53951" rx="1.26976" transform="matrix(-0.707107 0.707107 0.707107 0.707107 44.2726 13.6559)" fill="#BD3838"/>
<rect width="14.7292" height="2.53951" rx="1.26976" transform="matrix(-0.707107 0.707107 0.707107 0.707107 44.2726 13.6559)" fill="#1A3166"/>
<rect width="14.7292" height="2.53951" rx="1.26976" transform="matrix(0.707107 0.707107 0.707107 -0.707107 33.8575 15.4515)" fill="#BD3838"/>
<rect width="14.7292" height="2.53951" rx="1.26976" transform="matrix(0.707107 0.707107 0.707107 -0.707107 33.8575 15.4515)" fill="#BD3838"/>
<rect width="14.7292" height="2.53951" rx="1.26976" transform="matrix(0.707107 0.707107 0.707107 -0.707107 33.8575 15.4515)" fill="#BD3838"/>
<rect width="14.7292" height="2.53951" rx="1.26976" transform="matrix(0.707107 0.707107 0.707107 -0.707107 33.8575 15.4515)" fill="#1A3166"/>
<circle cx="24.3226" cy="50.7444" r="4.3412" stroke="#5388FE" stroke-width="4"/>
<circle cx="87.9738" cy="27.2543" r="3.60776" stroke="#2D56B2" stroke-width="4"/>
<circle cx="91.5816" cy="46.9582" r="1.11008" stroke="#4F86FF" stroke-width="3"/>
<path d="M62.9146 125.958C84.7867 125.958 102.518 124.923 102.518 123.646C102.518 122.369 84.7867 121.333 62.9146 121.333C41.0425 121.333 23.3117 122.369 23.3117 123.646C23.3117 124.923 41.0425 125.958 62.9146 125.958Z" fill="#B7CEFF"/>
<path d="M56.8544 77.9569C56.7402 77.4616 56.4616 77.0197 56.0639 76.7033C55.6662 76.3868 55.173 76.2146 54.6647 76.2146H38.3244C37.7285 76.2146 37.157 76.4513 36.7356 76.8727C36.3143 77.294 36.0776 77.8655 36.0776 78.4614V114.782C36.0776 115.378 36.3143 115.949 36.7356 116.371C37.157 116.792 37.7285 117.029 38.3244 117.029H90.205C90.8009 117.029 91.3724 116.792 91.7938 116.371C92.2151 115.949 92.4518 115.378 92.4518 114.782V84.2724C92.4518 83.6766 92.2151 83.1051 91.7938 82.6837C91.3724 82.2624 90.8009 82.0256 90.205 82.0256H61.9668C60.7801 82.0258 59.6283 81.6236 58.6997 80.8845C57.7711 80.1455 57.1205 79.1134 56.8544 77.9569Z" fill="#407BFF"/>
<path opacity="0.6" d="M56.8544 77.9569C56.7402 77.4616 56.4616 77.0197 56.0639 76.7033C55.6662 76.3868 55.173 76.2146 54.6647 76.2146H38.3244C37.7285 76.2146 37.157 76.4513 36.7356 76.8727C36.3143 77.294 36.0776 77.8655 36.0776 78.4614V114.782C36.0776 115.378 36.3143 115.949 36.7356 116.371C37.157 116.792 37.7285 117.029 38.3244 117.029H90.205C90.8009 117.029 91.3724 116.792 91.7938 116.371C92.2151 115.949 92.4518 115.378 92.4518 114.782V84.2724C92.4518 83.6766 92.2151 83.1051 91.7938 82.6837C91.3724 82.2624 90.8009 82.0256 90.205 82.0256H61.9668C60.7801 82.0258 59.6283 81.6236 58.6997 80.8845C57.7711 80.1455 57.1205 79.1134 56.8544 77.9569Z" fill="black"/>
<path opacity="0.22" d="M107.414 61.0366L105.152 65.4237C104.864 65.9825 104.81 66.6325 105.002 67.231C105.193 67.8295 105.614 68.3276 106.172 68.6159L110.558 70.8765L107.414 61.0366Z" fill="#407BFF"/>
<path d="M107.414 61.0366L91.7364 52.9565C91.46 52.8135 91.1581 52.7264 90.8481 52.7002C90.538 52.6739 90.2258 52.7091 89.9293 52.8036C89.6328 52.8982 89.3579 53.0503 89.1202 53.2512C88.8825 53.4521 88.6868 53.6978 88.5442 53.9745L73.6087 82.9481C73.466 83.2248 73.3793 83.5268 73.3534 83.8369C73.3275 84.147 73.363 84.4592 73.4578 84.7557C73.5526 85.0521 73.7049 85.327 73.9059 85.5645C74.1069 85.8021 74.3528 85.9977 74.6295 86.1403L94.6939 96.4823C94.9703 96.6251 95.2721 96.7119 95.5821 96.7379C95.8921 96.764 96.2042 96.7286 96.5005 96.6339C96.7968 96.5393 97.0716 96.3871 97.3091 96.1862C97.5465 95.9853 97.7421 95.7395 97.8846 95.463L110.554 70.8722L107.414 61.0366Z" fill="#407BFF"/>
<path opacity="0.8" d="M107.414 61.0366L91.7364 52.9565C91.46 52.8135 91.1581 52.7264 90.8481 52.7002C90.538 52.6739 90.2258 52.7091 89.9293 52.8036C89.6328 52.8982 89.3579 53.0503 89.1202 53.2512C88.8825 53.4521 88.6868 53.6978 88.5442 53.9745L73.6087 82.9481C73.466 83.2248 73.3793 83.5268 73.3534 83.8369C73.3275 84.147 73.363 84.4592 73.4578 84.7557C73.5526 85.0521 73.7049 85.327 73.9059 85.5645C74.1069 85.8021 74.3528 85.9977 74.6295 86.1403L94.6939 96.4823C94.9703 96.6251 95.2721 96.7119 95.5821 96.7379C95.8921 96.764 96.2042 96.7286 96.5005 96.6339C96.7968 96.5393 97.0716 96.3871 97.3091 96.1862C97.5465 95.9853 97.7421 95.7395 97.8846 95.463L110.554 70.8722L107.414 61.0366Z" fill="white"/>
<g opacity="0.28">
<path d="M90.8859 90.8435L77.8435 84.1197C77.5999 83.9937 77.4162 83.7763 77.3324 83.5151C77.2486 83.2539 77.2717 82.9702 77.3965 82.726C77.5231 82.4829 77.7407 82.2997 78.0018 82.2165C78.2629 82.1333 78.5464 82.1568 78.7903 82.2818L91.8341 89.0041C92.0778 89.1304 92.2616 89.3482 92.3451 89.6097C92.4286 89.8712 92.4051 90.1551 92.2797 90.3993C92.1531 90.6424 91.9355 90.8256 91.6744 90.9088C91.4132 90.992 91.1298 90.9685 90.8859 90.8435Z" fill="#407BFF"/>
</g>
<g opacity="0.28">
<path d="M97.9046 62.134L91.0074 58.578C90.7642 58.4515 90.5808 58.2341 90.4971 57.9731C90.4133 57.7121 90.4361 57.4285 90.5604 57.1842C90.6871 56.9409 90.9048 56.7575 91.1662 56.674C91.4275 56.5906 91.7113 56.6138 91.9556 56.7386L98.8528 60.2947C99.0968 60.4203 99.2809 60.6377 99.3647 60.899C99.4485 61.1604 99.4252 61.4443 99.2998 61.6884C99.1731 61.9317 98.9553 62.1151 98.694 62.1986C98.4326 62.2821 98.1489 62.2588 97.9046 62.134Z" fill="#407BFF"/>
</g>
<g opacity="0.28">
<path d="M100.524 68.1038L89.1238 62.2262C88.882 62.0991 88.7 61.8818 88.6174 61.6214C88.5348 61.361 88.5582 61.0785 88.6826 60.8353C88.8085 60.5919 89.0257 60.4084 89.2867 60.3249C89.5477 60.2414 89.8311 60.2647 90.0749 60.3897L101.475 66.2673C101.719 66.3934 101.903 66.6107 101.986 66.8719C102.07 67.1331 102.047 67.4168 101.922 67.661C101.795 67.9042 101.576 68.0872 101.314 68.1701C101.053 68.253 100.769 68.2292 100.524 68.1038Z" fill="#407BFF"/>
</g>
<g opacity="0.28">
<path d="M103.881 74.4534L87.2501 65.87C87.0068 65.7441 86.8232 65.5269 86.7397 65.2659C86.6562 65.0049 86.6795 64.7215 86.8045 64.4777C86.931 64.2345 87.1484 64.0511 87.4094 63.9674C87.6704 63.8836 87.954 63.9064 88.1983 64.0307L104.829 72.6141C105.072 72.7404 105.256 72.9576 105.339 73.2184C105.423 73.4792 105.4 73.7625 105.275 74.0064C105.149 74.25 104.932 74.4338 104.67 74.5175C104.409 74.6013 104.125 74.5782 103.881 74.4534Z" fill="#407BFF"/>
</g>
<g opacity="0.28">
<path d="M102.001 78.1016L92.3277 73.117C92.0846 72.9904 91.9014 72.7728 91.8182 72.5117C91.735 72.2505 91.7585 71.9671 91.8836 71.7232C92.0099 71.4802 92.2271 71.2971 92.4879 71.2136C92.7487 71.1301 93.032 71.1531 93.2759 71.2776L102.949 76.2623C103.192 76.3894 103.375 76.6072 103.458 76.8683C103.542 77.1295 103.519 77.4131 103.394 77.6575C103.268 77.9006 103.05 78.0837 102.789 78.1669C102.528 78.2501 102.244 78.2267 102.001 78.1016Z" fill="#407BFF"/>
</g>
<g opacity="0.28">
<path d="M87.8926 70.8309L85.3637 69.5269C85.1201 69.4009 84.9363 69.1835 84.8525 68.9223C84.7688 68.6611 84.7918 68.3774 84.9167 68.1332C85.043 67.8895 85.2607 67.7057 85.5222 67.6222C85.7837 67.5387 86.0677 67.5622 86.3119 67.6876L88.8408 68.9915C89.084 69.118 89.2674 69.3354 89.3511 69.5964C89.4348 69.8574 89.4121 70.1409 89.2878 70.3853C89.1607 70.6282 88.9429 70.8112 88.6817 70.8947C88.4205 70.9781 88.137 70.9551 87.8926 70.8309Z" fill="#407BFF"/>
</g>
<g opacity="0.28">
<path d="M100.12 81.7527L83.4815 73.1766C83.2384 73.0501 83.0552 72.8324 82.972 72.5713C82.8888 72.3102 82.9123 72.0267 83.0374 71.7828C83.1633 71.5395 83.3805 71.3559 83.6415 71.2724C83.9024 71.1889 84.1859 71.2122 84.4297 71.3373L101.068 79.9134C101.311 80.0397 101.494 80.2569 101.578 80.5178C101.661 80.7786 101.638 81.0618 101.514 81.3057C101.387 81.5493 101.17 81.7331 100.909 81.8168C100.648 81.9006 100.364 81.8776 100.12 81.7527Z" fill="#407BFF"/>
</g>
<g opacity="0.28">
<path d="M91.818 82.0915L81.6007 76.8248C81.3578 76.6985 81.1746 76.4813 81.0911 76.2204C81.0076 75.9596 81.0307 75.6764 81.1552 75.4325C81.2816 75.1893 81.499 75.0059 81.76 74.9222C82.0211 74.8384 82.3046 74.8612 82.5489 74.9855L92.7662 80.2522C93.0095 80.3789 93.1929 80.5967 93.2764 80.858C93.3599 81.1194 93.3366 81.4031 93.2118 81.6474C93.0856 81.8909 92.868 82.0744 92.6067 82.1577C92.3455 82.2409 92.0618 82.2171 91.818 82.0915Z" fill="#407BFF"/>
</g>
<g opacity="0.28">
<path d="M98.2376 85.4024L95.5112 83.9964C95.2679 83.8697 95.0845 83.6519 95.0011 83.3906C94.9176 83.1292 94.9408 82.8455 95.0656 82.6012C95.1922 82.3581 95.4098 82.1749 95.6709 82.0917C95.9321 82.0085 96.2155 82.032 96.4594 82.1571L99.1858 83.563C99.4291 83.6889 99.6127 83.9062 99.6962 84.1671C99.7797 84.4281 99.7564 84.7115 99.6313 84.9553C99.5053 85.1989 99.2879 85.3827 99.0267 85.4665C98.7655 85.5503 98.4818 85.5272 98.2376 85.4024Z" fill="#407BFF"/>
</g>
<g opacity="0.28">
<path d="M96.354 89.0535L79.7258 80.473C79.4821 80.3466 79.2983 80.1289 79.2148 79.8674C79.1313 79.6059 79.1548 79.322 79.2802 79.0778C79.4064 78.8343 79.624 78.6508 79.8853 78.5675C80.1466 78.4842 80.4302 78.508 80.674 78.6336L97.3108 87.2083C97.5538 87.3354 97.7368 87.5532 97.8202 87.8144C97.9036 88.0756 97.8807 88.3591 97.7564 88.6035C97.6943 88.7255 97.6086 88.834 97.5043 88.9227C97.4001 89.0114 97.2793 89.0786 97.1489 89.1205C97.0186 89.1623 96.8812 89.1779 96.7448 89.1664C96.6084 89.1549 96.4756 89.1166 96.354 89.0535Z" fill="#407BFF"/>
</g>
<path d="M119.67 76.2233L106.34 64.6754C106.105 64.4708 105.832 64.3147 105.537 64.2158C105.241 64.1169 104.929 64.0772 104.619 64.0991C104.308 64.1209 104.004 64.2038 103.726 64.3431C103.447 64.4823 103.199 64.6751 102.994 64.9105L81.6508 89.5463C81.4464 89.7816 81.2903 90.0549 81.1917 90.3506C81.093 90.6463 81.0537 90.9586 81.0759 91.2696C81.0982 91.5805 81.1816 91.884 81.3213 92.1626C81.4611 92.4413 81.6544 92.6896 81.8903 92.8934L98.9508 107.673C99.1857 107.877 99.4586 108.033 99.7538 108.132C100.049 108.23 100.361 108.269 100.671 108.247C100.982 108.225 101.285 108.141 101.563 108.002C101.841 107.862 102.089 107.669 102.292 107.434L120.411 86.5332L119.67 76.2233Z" fill="#407BFF"/>
<path opacity="0.8" d="M119.67 76.2233L106.34 64.6754C106.105 64.4708 105.832 64.3147 105.537 64.2158C105.241 64.1169 104.929 64.0772 104.619 64.0991C104.308 64.1209 104.004 64.2038 103.726 64.3431C103.447 64.4823 103.199 64.6751 102.994 64.9105L81.6508 89.5463C81.4464 89.7816 81.2903 90.0549 81.1917 90.3506C81.093 90.6463 81.0537 90.9586 81.0759 91.2696C81.0982 91.5805 81.1816 91.884 81.3213 92.1626C81.4611 92.4413 81.6544 92.6896 81.8903 92.8934L98.9508 107.673C99.1857 107.877 99.4586 108.033 99.7538 108.132C100.049 108.23 100.361 108.269 100.671 108.247C100.982 108.225 101.285 108.141 101.563 108.002C101.841 107.862 102.089 107.669 102.292 107.434L120.411 86.5332L119.67 76.2233Z" fill="white"/>
<g opacity="0.22">
<path d="M96.5813 101.291L85.4894 91.6823C85.283 91.5019 85.1564 91.2472 85.1372 90.9738C85.118 90.7004 85.2078 90.4305 85.3869 90.2231C85.5672 90.0168 85.8216 89.89 86.0948 89.8703C86.3681 89.8506 86.6381 89.9395 86.8461 90.1177L97.9367 99.7277C98.1434 99.9077 98.2705 100.162 98.2903 100.436C98.31 100.709 98.2208 100.979 98.042 101.187C97.8618 101.394 97.6069 101.521 97.3331 101.541C97.0594 101.56 96.7891 101.47 96.5813 101.291Z" fill="#407BFF"/>
</g>
<g opacity="0.22">
<path d="M110.172 75.0487L104.308 69.963C104.102 69.7827 103.975 69.5283 103.955 69.2551C103.935 68.9818 104.024 68.7118 104.203 68.5038C104.383 68.2973 104.638 68.1705 104.912 68.151C105.185 68.1316 105.455 68.221 105.663 68.3999L111.53 73.4826C111.736 73.6625 111.863 73.9168 111.883 74.1901C111.902 74.4633 111.813 74.7331 111.634 74.9404C111.454 75.1484 111.199 75.2767 110.925 75.297C110.651 75.3173 110.38 75.228 110.172 75.0487Z" fill="#407BFF"/>
</g>
<g opacity="0.22">
<path d="M111.309 81.4678L101.617 73.0689C101.41 72.8892 101.283 72.6346 101.263 72.3611C101.243 72.0875 101.333 71.8173 101.512 71.6097C101.692 71.4027 101.947 71.2755 102.221 71.2561C102.495 71.2366 102.765 71.3264 102.973 71.5057L112.663 79.9032C112.871 80.0829 112.998 80.3375 113.018 80.6111C113.038 80.8846 112.948 81.1549 112.769 81.3625C112.589 81.5692 112.334 81.6963 112.061 81.7161C111.787 81.7358 111.517 81.6466 111.309 81.4678Z" fill="#407BFF"/>
</g>
<g opacity="0.22">
<path d="M113.074 88.4296L98.9281 76.1733C98.7204 75.9931 98.5925 75.7379 98.5724 75.4636C98.5524 75.1893 98.6419 74.9182 98.8213 74.7098C99.0011 74.5032 99.2555 74.3762 99.5287 74.3568C99.802 74.3373 100.072 74.4269 100.279 74.6059L114.427 86.8622C114.634 87.0426 114.76 87.2973 114.78 87.5707C114.799 87.8441 114.709 88.114 114.53 88.3214C114.35 88.5277 114.097 88.6548 113.824 88.6751C113.551 88.6954 113.282 88.6071 113.074 88.4296Z" fill="#407BFF"/>
</g>
<g opacity="0.22">
<path d="M110.386 91.5326L102.162 84.4076C101.955 84.2276 101.828 83.9731 101.809 83.6997C101.789 83.4263 101.878 83.1562 102.057 82.9483C102.237 82.7411 102.491 82.6136 102.765 82.5939C103.038 82.5741 103.309 82.6637 103.516 82.843L111.74 89.968C111.947 90.1477 112.074 90.4023 112.094 90.6758C112.114 90.9494 112.024 91.2196 111.845 91.4272C111.665 91.634 111.411 91.7611 111.137 91.7808C110.864 91.8006 110.594 91.7113 110.386 91.5326Z" fill="#407BFF"/>
</g>
<g opacity="0.22">
<path d="M98.3906 81.1385L96.2389 79.2748C96.0323 79.095 95.9054 78.8406 95.8859 78.5674C95.8665 78.2941 95.956 78.0243 96.135 77.817C96.315 77.6103 96.5695 77.4831 96.8429 77.4634C97.1163 77.4437 97.3864 77.5329 97.5942 77.7117L99.7459 79.5754C99.9524 79.7559 100.079 80.0107 100.099 80.2843C100.118 80.5579 100.029 80.8281 99.8499 81.0361C99.6695 81.2424 99.4148 81.369 99.1414 81.3882C98.868 81.4074 98.5981 81.3176 98.3906 81.1385Z" fill="#407BFF"/>
</g>
<g opacity="0.22">
<path d="M107.698 94.6356L93.5512 82.3778C93.3444 82.1978 93.2173 81.9433 93.1976 81.6699C93.1778 81.3965 93.2671 81.1264 93.4458 80.9186C93.6263 80.7121 93.8812 80.5853 94.1548 80.5658C94.4284 80.5463 94.6986 80.6358 94.9065 80.8146L109.052 93.071C109.259 93.2512 109.386 93.5061 109.406 93.7799C109.425 94.0536 109.335 94.3239 109.156 94.5317C108.976 94.7382 108.722 94.8652 108.448 94.8846C108.175 94.9041 107.905 94.8146 107.698 94.6356Z" fill="#407BFF"/>
</g>
<g opacity="0.22">
<path d="M99.5503 93.0085L90.862 85.4822C90.6555 85.3016 90.5287 85.0468 90.5092 84.7732C90.4898 84.4996 90.5792 84.2294 90.7581 84.0215C90.9385 83.8152 91.1932 83.6886 91.4666 83.6694C91.74 83.6502 92.0099 83.7399 92.2173 83.919L100.906 91.4453C101.112 91.6257 101.239 91.8804 101.258 92.1538C101.277 92.4272 101.187 92.6971 101.008 92.9046C100.829 93.1116 100.574 93.2389 100.301 93.2584C100.027 93.2779 99.7574 93.188 99.5503 93.0085Z" fill="#407BFF"/>
</g>
<g opacity="0.22">
<path d="M105.007 97.7386L102.688 95.7277C102.482 95.5479 102.355 95.2935 102.335 95.0203C102.316 94.7471 102.405 94.4773 102.584 94.2699C102.764 94.0627 103.019 93.9352 103.292 93.9155C103.566 93.8957 103.836 93.9853 104.044 94.1646L106.363 96.1754C106.57 96.3551 106.697 96.6097 106.717 96.8832C106.737 97.1568 106.647 97.427 106.468 97.6346C106.288 97.8411 106.033 97.9679 105.759 97.9874C105.486 98.0069 105.215 97.9174 105.007 97.7386Z" fill="#407BFF"/>
</g>
<g opacity="0.22">
<path d="M102.32 100.841L88.1742 88.5851C87.9675 88.4052 87.8404 88.1507 87.8206 87.8773C87.8009 87.6039 87.8901 87.3338 88.0689 87.1259C88.2489 86.9192 88.5034 86.7921 88.7768 86.7723C89.0502 86.7526 89.3203 86.8418 89.5281 87.0206L103.675 99.2783C103.882 99.4582 104.009 99.7126 104.028 99.9858C104.047 100.259 103.958 100.529 103.779 100.736C103.599 100.943 103.345 101.071 103.071 101.091C102.798 101.11 102.527 101.021 102.32 100.841Z" fill="#407BFF"/>
</g>
<path opacity="0.22" d="M119.67 76.2234L116.438 79.9542C116.234 80.1893 116.078 80.4623 115.98 80.7575C115.882 81.0527 115.842 81.3645 115.864 81.6749C115.887 81.9853 115.97 82.2884 116.109 82.5667C116.248 82.845 116.441 83.0932 116.676 83.297L120.411 86.5332L119.67 76.2234Z" fill="#407BFF"/>
<path d="M26.6241 65.6159L6.83221 89.1113L29.0708 107.845L48.8627 84.3492L26.6241 65.6159Z" fill="#407BFF"/>
<path opacity="0.8" d="M26.6241 65.6159L6.83221 89.1113L29.0708 107.845L48.8627 84.3492L26.6241 65.6159Z" fill="#D9E5FF"/>
<path d="M26.6561 65.9913L6.86414 89.4866L29.1027 108.22L48.8946 84.7245L26.6561 65.9913Z" fill="#D9E5FF"/>
<path d="M26.9732 69.1584L10.0368 89.2638L25.3547 102.167L42.2911 82.0618L26.9732 69.1584Z" fill="#407BFF"/>
<path opacity="0.8" d="M26.9732 69.1584L10.0368 89.2638L25.3547 102.167L42.2911 82.0618L26.9732 69.1584Z" fill="#D9E5FF"/>
<path d="M22.6588 84.9545C23.2164 85.4243 23.622 86.049 23.8244 86.7495C24.0267 87.45 24.0167 88.1948 23.7955 88.8896C23.5743 89.5843 23.152 90.1979 22.582 90.6525C22.0119 91.1071 21.3198 91.3824 20.5932 91.4435C19.8667 91.5045 19.1383 91.3486 18.5004 90.9955C17.8625 90.6424 17.3437 90.108 17.0096 89.4599C16.6756 88.8117 16.5414 88.0791 16.624 87.3547C16.7066 86.6302 17.0023 85.9466 17.4736 85.3903C18.1041 84.646 19.0041 84.1822 19.9761 84.1005C20.9481 84.0188 21.9129 84.3259 22.6588 84.9545Z" fill="#407BFF"/>
<path opacity="0.1" d="M22.6588 84.9545C23.2164 85.4243 23.622 86.049 23.8244 86.7495C24.0267 87.45 24.0167 88.1948 23.7955 88.8896C23.5743 89.5843 23.152 90.1979 22.582 90.6525C22.0119 91.1071 21.3198 91.3824 20.5932 91.4435C19.8667 91.5045 19.1383 91.3486 18.5004 90.9955C17.8625 90.6424 17.3437 90.108 17.0096 89.4599C16.6756 88.8117 16.5414 88.0791 16.624 87.3547C16.7066 86.6302 17.0023 85.9466 17.4736 85.3903C18.1041 84.646 19.0041 84.1822 19.9761 84.1005C20.9481 84.0188 21.9129 84.3259 22.6588 84.9545Z" fill="#D9E5FF"/>
<path d="M35.524 79.8271C34.8447 79.4366 34.0877 79.2003 33.3069 79.1349C32.5261 79.0696 31.7404 79.1769 31.0056 79.4491C30.9739 79.4232 30.9466 79.3924 30.9144 79.3648C29.957 78.5488 28.7424 78.0969 27.4844 78.0885C26.2265 78.0802 25.006 78.516 24.0379 79.3193C23.0697 80.1225 22.4161 81.2416 22.1921 82.4794C21.9681 83.7173 22.188 84.9945 22.8133 86.086C22.6774 86.201 22.551 86.3267 22.4353 86.4619C22.0224 86.9507 21.7656 87.552 21.6981 88.1882C21.6306 88.8244 21.7554 89.4662 22.0565 90.0307C21.4487 90.4789 20.9965 91.1063 20.7635 91.8247C20.5186 92.5425 20.4889 93.3161 20.6779 94.0506C20.8669 94.785 21.2664 95.4482 21.8273 95.9586C22.2096 96.295 22.6553 96.5517 23.1382 96.7136C23.621 96.8754 24.1313 96.9392 24.6391 96.9012C25.147 96.8632 25.6421 96.7241 26.0955 96.4922C26.5489 96.2603 26.9513 95.9401 27.2793 95.5505L32.1481 89.7698L36.6089 84.4741C37.1073 83.894 37.3571 83.141 37.3044 82.378C37.2516 81.6151 36.9006 80.9036 36.3272 80.3976L36.3045 80.377C36.0615 80.1704 35.8002 79.9864 35.524 79.8271Z" fill="#407BFF"/>
<path opacity="0.3" d="M35.524 79.8271C34.8447 79.4366 34.0877 79.2003 33.3069 79.1349C32.5261 79.0696 31.7404 79.1769 31.0056 79.4491C30.9739 79.4232 30.9466 79.3924 30.9144 79.3648C29.957 78.5488 28.7424 78.0969 27.4844 78.0885C26.2265 78.0802 25.006 78.516 24.0379 79.3193C23.0697 80.1225 22.4161 81.2416 22.1921 82.4794C21.9681 83.7173 22.188 84.9945 22.8133 86.086C22.6774 86.201 22.551 86.3267 22.4353 86.4619C22.0224 86.9507 21.7656 87.552 21.6981 88.1882C21.6306 88.8244 21.7554 89.4662 22.0565 90.0307C21.4487 90.4789 20.9965 91.1063 20.7635 91.8247C20.5186 92.5425 20.4889 93.3161 20.6779 94.0506C20.8669 94.785 21.2664 95.4482 21.8273 95.9586C22.2096 96.295 22.6553 96.5517 23.1382 96.7136C23.621 96.8754 24.1313 96.9392 24.6391 96.9012C25.147 96.8632 25.6421 96.7241 26.0955 96.4922C26.5489 96.2603 26.9513 95.9401 27.2793 95.5505L32.1481 89.7698L36.6089 84.4741C37.1073 83.894 37.3571 83.141 37.3044 82.378C37.2516 81.6151 36.9006 80.9036 36.3272 80.3976L36.3045 80.377C36.0615 80.1704 35.8002 79.9864 35.524 79.8271Z" fill="black"/>
<g style="mix-blend-mode:multiply">
<path d="M28.4808 69.4691L7.84912 92.2307L29.3931 111.759L50.0248 88.9972L28.4808 69.4691Z" fill="#407BFF"/>
</g>
<path opacity="0.8" d="M28.4808 69.4691L7.84912 92.2307L29.3931 111.759L50.0248 88.9972L28.4808 69.4691Z" fill="#D9E5FF"/>
<path d="M28.5016 69.8473L7.86993 92.6089L29.4139 112.137L50.0456 89.3754L28.5016 69.8473Z" fill="#D9E5FF"/>
<path d="M28.7044 73.0241L11.0495 92.5016L25.889 105.952L43.5439 86.475L28.7044 73.0241Z" fill="#407BFF"/>
<path opacity="0.8" d="M28.7044 73.0241L11.0495 92.5016L25.889 105.952L43.5439 86.475L28.7044 73.0241Z" fill="#D9E5FF"/>
<path d="M25.0175 91.1922C24.9133 89.1641 23.1848 87.6045 21.1567 87.7086C19.1286 87.8128 17.5689 89.5413 17.6731 91.5694C17.7773 93.5975 19.5058 95.1572 21.5339 95.053C23.562 94.9489 25.1216 93.2203 25.0175 91.1922Z" fill="#407BFF"/>
<path opacity="0.1" d="M25.0175 91.1922C24.9133 89.1641 23.1848 87.6045 21.1567 87.7086C19.1286 87.8128 17.5689 89.5413 17.6731 91.5694C17.7773 93.5975 19.5058 95.1572 21.5339 95.053C23.562 94.9489 25.1216 93.2203 25.0175 91.1922Z" fill="#D9E5FF"/>
<path d="M36.8602 84.0024C36.195 83.587 35.4466 83.3231 34.668 83.2295C33.8895 83.1358 33.0998 83.2148 32.3552 83.4606C32.3243 83.4308 32.2987 83.3995 32.2665 83.3718C31.3388 82.5216 30.1408 82.0262 28.8835 81.9728C27.6263 81.9194 26.3906 82.3116 25.3941 83.0801C24.3977 83.8486 23.7046 84.9443 23.4369 86.1738C23.1692 87.4034 23.3441 88.688 23.9308 89.8012C23.7896 89.9101 23.658 90.0309 23.5374 90.1622C23.1083 90.6357 22.8307 91.2268 22.7405 91.8594C22.6504 92.492 22.7516 93.1371 23.0313 93.7117C22.4068 94.1362 21.9318 94.7466 21.6736 95.4563C21.4026 96.1644 21.3447 96.9364 21.5069 97.677C21.6691 98.4177 22.0444 99.0948 22.5865 99.6249C22.9559 99.9758 23.3917 100.249 23.8682 100.429C24.3448 100.61 24.8525 100.693 25.3617 100.674C25.8708 100.655 26.371 100.535 26.833 100.32C27.295 100.105 27.7094 99.8002 28.0518 99.423L33.1375 93.8111L37.7892 88.6797C38.3064 88.1171 38.5815 87.3737 38.5553 86.61C38.5291 85.8463 38.2036 85.1235 37.6491 84.5978L37.6246 84.5776C37.3882 84.3626 37.1322 84.17 36.8602 84.0024Z" fill="#407BFF"/>
<path opacity="0.3" d="M36.8602 84.0024C36.195 83.587 35.4466 83.3231 34.668 83.2295C33.8895 83.1358 33.0998 83.2148 32.3552 83.4606C32.3243 83.4308 32.2987 83.3995 32.2665 83.3718C31.3388 82.5216 30.1408 82.0262 28.8835 81.9728C27.6263 81.9194 26.3906 82.3116 25.3941 83.0801C24.3977 83.8486 23.7046 84.9443 23.4369 86.1738C23.1692 87.4034 23.3441 88.688 23.9308 89.8012C23.7896 89.9101 23.658 90.0309 23.5374 90.1622C23.1083 90.6357 22.8307 91.2268 22.7405 91.8594C22.6504 92.492 22.7516 93.1371 23.0313 93.7117C22.4068 94.1362 21.9318 94.7466 21.6736 95.4563C21.4026 96.1644 21.3447 96.9364 21.5069 97.677C21.6691 98.4177 22.0444 99.0948 22.5865 99.6249C22.9559 99.9758 23.3917 100.249 23.8682 100.429C24.3448 100.61 24.8525 100.693 25.3617 100.674C25.8708 100.655 26.371 100.535 26.833 100.32C27.295 100.105 27.7094 99.8002 28.0518 99.423L33.1375 93.8111L37.7892 88.6797C38.3064 88.1171 38.5815 87.3737 38.5553 86.61C38.5291 85.8463 38.2036 85.1235 37.6491 84.5978L37.6246 84.5776C37.3882 84.3626 37.1322 84.17 36.8602 84.0024Z" fill="black"/>
<g style="mix-blend-mode:multiply">
<path d="M51.5694 66.438L22.9396 77.5772L33.483 104.676L62.1129 93.5364L51.5694 66.438Z" fill="#407BFF"/>
</g>
<path opacity="0.8" d="M51.5694 66.438L22.9396 77.5772L33.483 104.676L62.1129 93.5364L51.5694 66.438Z" fill="#D9E5FF"/>
<path d="M51.4165 66.7841L22.7867 77.9234L33.3301 105.022L61.96 93.8825L51.4165 66.7841Z" fill="#D9E5FF"/>
<path d="M50.1785 69.7158L25.6793 79.2479L32.9416 97.9133L57.4408 88.3812L50.1785 69.7158Z" fill="#407BFF"/>
<path opacity="0.8" d="M50.1785 69.7158L25.6793 79.2479L32.9416 97.9133L57.4408 88.3812L50.1785 69.7158Z" fill="#D9E5FF"/>
<path d="M57.1777 87.6976L57.4425 88.3799L44.7174 93.3325L46.8528 88.782L49.0382 84.1188L57.1777 87.6976Z" fill="#407BFF"/>
<path opacity="0.3" d="M57.1777 87.6976L57.4425 88.3799L44.7174 93.3325L46.8528 88.782L49.0382 84.1188L57.1777 87.6976Z" fill="black"/>
<path d="M51.933 90.5237L32.945 97.9116L32.3598 96.4111L37.7051 85.6469L46.8528 88.782L51.933 90.5237Z" fill="#407BFF"/>
<path opacity="0.3" d="M51.933 90.5237L32.945 97.9116L32.3598 96.4111L37.7051 85.6469L46.8528 88.782L51.933 90.5237Z" fill="black"/>
<path d="M46.1234 78.4596C45.7482 76.7827 44.0846 75.7273 42.4077 76.1025C40.7307 76.4776 39.6754 78.1412 40.0505 79.8182C40.4257 81.4952 42.0893 82.5505 43.7662 82.1753C45.4432 81.8002 46.4985 80.1366 46.1234 78.4596Z" fill="#407BFF"/>
<path opacity="0.1" d="M46.1234 78.4596C45.7482 76.7827 44.0846 75.7273 42.4077 76.1025C40.7307 76.4776 39.6754 78.1412 40.0505 79.8182C40.4257 81.4952 42.0893 82.5505 43.7662 82.1753C45.4432 81.8002 46.4985 80.1366 46.1234 78.4596Z" fill="#D9E5FF"/>
<path d="M63.4595 81.1984C63.4565 80.9623 63.4061 80.7292 63.3114 80.5129C63.2167 80.2966 63.0796 80.1015 62.9083 79.9391C62.7369 79.7767 62.5347 79.6503 62.3137 79.5673C62.0926 79.4843 61.8572 79.4465 61.6212 79.4561H45.2605C44.0206 79.4561 42.8094 80.4631 42.5765 81.7029L36.1201 114.782C35.879 116.022 36.6879 117.029 37.9277 117.029H89.8084C91.0482 117.029 92.2492 116.024 92.4923 114.782L97.8172 87.5139C98.0582 86.2721 97.2494 85.2671 96.0095 85.2671H67.7795C65.3285 85.2671 63.5433 83.58 63.4595 81.1984Z" fill="#5388FE"/>
<path d="M70.2716 69.9847L76.2222 64.0342L100.743 84.9632C103.746 87.5264 103.927 92.1055 101.135 94.8974C98.343 97.6893 93.7639 97.5087 91.2006 94.5055L70.2716 69.9847Z" fill="#1A3166"/>
<path d="M74.4964 74.9346L91.2006 94.5055C93.7638 97.5087 98.3429 97.6893 101.135 94.8975C103.927 92.1056 103.746 87.5264 100.743 84.9632L78.896 66.3164C78.0168 69.4859 76.5037 72.4038 74.4964 74.9346Z" fill="#2D56B2"/>
<path d="M67.0256 72.6767C63.4105 74.1124 59.4601 74.4201 55.6739 73.5607C51.8877 72.7013 48.4358 70.7136 45.7547 67.8488C43.0737 64.9839 41.2838 61.3707 40.6115 57.4661C39.9391 53.5614 40.4145 49.5406 41.9776 45.9121C43.5406 42.2836 46.121 39.2104 49.3926 37.0811C52.6641 34.9517 56.4799 33.862 60.3573 33.9495C64.2348 34.037 67.9997 35.298 71.1762 37.5728C74.3526 39.8477 76.7978 43.0344 78.2026 46.7299C79.1357 49.1838 79.5868 51.8015 79.5301 54.4336C79.4733 57.0658 78.9099 59.6607 77.872 62.0702C76.8341 64.4797 75.342 66.6565 73.4809 68.4764C71.6199 70.2963 69.4264 71.7236 67.0256 72.6767Z" fill="#D9E5FF"/>
<path d="M63.477 34.2767L48.0964 69.9849C47.8596 69.8017 47.6249 69.6119 47.3944 69.42C45.9078 68.1628 44.6133 66.6858 43.5535 65.0377L56.8387 34.1938C59.0397 33.8314 61.2853 33.8595 63.477 34.2767Z" fill="white"/>
<path d="M74.4107 40.4717L59.9498 74.0444C56.9461 74.0477 53.9819 73.3446 51.2865 71.9896L67.0768 35.3281C69.8742 36.4465 72.3832 38.2062 74.4107 40.4717Z" fill="white"/>
<path fill-rule="evenodd" clip-rule="evenodd" d="M51.1587 39.2127C48.3585 41.0352 46.1404 43.672 44.7942 46.7971C43.4478 49.9228 43.0371 53.3902 43.6171 56.7586C44.197 60.1267 45.7397 63.2354 48.041 65.6944C50.3416 68.1526 53.296 69.8507 56.5268 70.584C59.7571 71.3172 63.1277 71.0552 66.2152 69.8291L66.2155 69.8289C68.2665 69.0147 70.1445 67.7938 71.7407 66.2328C73.3371 64.6717 74.6203 62.8012 75.5141 60.7262C76.4079 58.6512 76.894 56.4142 76.943 54.1435C76.9919 51.8728 76.6027 49.6157 75.7988 47.5017L75.7987 47.5015C74.5883 44.3175 72.4854 41.5818 69.7652 39.6337C67.0459 37.6862 63.8296 36.6111 60.5231 36.5364C57.2167 36.4618 53.9581 37.3907 51.1587 39.2127ZM39.6196 44.5681C41.3995 40.4362 44.3423 36.9267 48.0852 34.4905C51.8289 32.0539 56.2018 30.8032 60.6503 30.9036C65.0987 31.0041 69.4123 32.4508 73.0458 35.0531C76.6785 37.6548 79.466 41.2924 81.0652 45.4994C82.1275 48.2931 82.6404 51.2714 82.5759 54.2649C82.5114 57.2585 81.8706 60.2113 80.6886 62.9552C79.5066 65.6992 77.8056 68.1824 75.6799 70.2611C73.5541 72.3399 71.0452 73.9735 68.2948 75.0654C64.152 76.7107 59.6218 77.064 55.2797 76.0785C50.9381 75.0931 46.9888 72.8156 43.9273 69.5443C40.8663 66.2736 38.8293 62.1559 38.0646 57.7146C37.2999 53.2737 37.84 48.6995 39.6196 44.5681Z" fill="#2D56B2"/>
<path d="M98.5434 85.1585L80.877 70.6921C80.3294 70.2437 79.6914 70.8744 80.1348 71.4258L94.4005 89.1691C94.951 89.8537 95.7459 90.2985 96.5738 90.3851L97.0636 90.4363C98.7551 90.6132 100.028 89.2764 99.7785 87.5846L99.7205 87.1911C99.6062 86.4154 99.1803 85.68 98.5434 85.1585Z" fill="#9FBDFF"/>
<rect width="12.8004" height="2.20696" rx="1.10348" transform="matrix(-0.707107 0.707107 0.707107 0.707107 20.7071 65.8296)" fill="#BD3838"/>
<rect width="12.8004" height="2.20696" rx="1.10348" transform="matrix(-0.707107 0.707107 0.707107 0.707107 20.7071 65.8296)" fill="#BD3838"/>
<rect width="12.8004" height="2.20696" rx="1.10348" transform="matrix(-0.707107 0.707107 0.707107 0.707107 20.7071 65.8296)" fill="#BD3838"/>
<rect width="12.8004" height="2.20696" rx="1.10348" transform="matrix(-0.707107 0.707107 0.707107 0.707107 20.7071 65.8296)" fill="#1A3166"/>
<rect width="12.8004" height="2.20696" rx="1.10348" transform="matrix(0.707107 0.707107 0.707107 -0.707107 11.6558 67.3901)" fill="#BD3838"/>
<rect width="12.8004" height="2.20696" rx="1.10348" transform="matrix(0.707107 0.707107 0.707107 -0.707107 11.6558 67.3901)" fill="#BD3838"/>
<rect width="12.8004" height="2.20696" rx="1.10348" transform="matrix(0.707107 0.707107 0.707107 -0.707107 11.6558 67.3901)" fill="#BD3838"/>
<rect width="12.8004" height="2.20696" rx="1.10348" transform="matrix(0.707107 0.707107 0.707107 -0.707107 11.6558 67.3901)" fill="#1A3166"/>
</svg>
