<svg xmlns="http://www.w3.org/2000/svg" viewBox="0 0 64 64"><g data-name="26-Certificate"><path d="M63 11v42H1V11zm-4 34V19a4 4 0 0 1-4-4H9a4 4 0 0 1-4 4v26a4 4 0 0 1 4 4h46a4 4 0 0 1 4-4z" style="fill:#9c59a9"/><path style="fill:#ffc400" d="m39 24.35-3.5 3.58.83 5.07L32 30.61 27.67 33l.83-5.07-3.5-3.58 4.84-.74L32 19l2.16 4.61 4.84.74z"/><path d="M59 19v26a4 4 0 0 0-4 4H9a4 4 0 0 0-4-4V19a4 4 0 0 0 4-4h46a4 4 0 0 0 4 4zm-23.5 8.93 3.5-3.58-4.84-.74L32 19l-2.16 4.61-4.84.74 3.5 3.58-.83 5.07L32 30.61 36.33 33z" style="fill:#edf4fa"/><path d="M55 49H9a4 4 0 0 0-4-4V19a4 4 0 0 0 4-4v-4H1v42h62v-8h-4a4 4 0 0 0-4 4z" style="fill:#593a75"/><path d="M5 19v26a4 4 0 0 1 4 4h46a4 4 0 0 1 4-4H23A14 14 0 0 1 9 31V15a4 4 0 0 1-4 4z" style="fill:#c1cfe8"/><path d="M63 10H1a1 1 0 0 0-1 1v42a1 1 0 0 0 1 1h62a1 1 0 0 0 1-1V11a1 1 0 0 0-1-1zm-1 42H2V12h60z"/><path d="M5 46a3 3 0 0 1 3 3 1 1 0 0 0 1 1h41v-2H9.9A5.013 5.013 0 0 0 6 44.1V19.9A5.013 5.013 0 0 0 9.9 16H12v-2H9a1 1 0 0 0-1 1 3 3 0 0 1-3 3 1 1 0 0 0-1 1v26a1 1 0 0 0 1 1zM58 19.9v24.2a5.013 5.013 0 0 0-3.9 3.9H52v2h3a1 1 0 0 0 1-1 3 3 0 0 1 3-3 1 1 0 0 0 1-1V19a1 1 0 0 0-1-1 3 3 0 0 1-3-3 1 1 0 0 0-1-1H18v2h36.1a5.013 5.013 0 0 0 3.9 3.9z"/><path d="M14 14h2v2h-2zM39.948 24.03a1 1 0 0 0-.8-.671l-4.306-.659-1.937-4.125a1 1 0 0 0-1.81 0L29.158 22.7l-4.309.659a1 1 0 0 0-.565 1.687l3.148 3.225-.745 4.568a1 1 0 0 0 1.471 1.036L32 31.751l3.842 2.124a1 1 0 0 0 1.471-1.036l-.745-4.568 3.148-3.225a1 1 0 0 0 .232-1.016zm-5.164 3.206a1 1 0 0 0-.271.86l.5 3.033-2.524-1.4a1 1 0 0 0-.968 0l-2.524 1.4.495-3.033a1 1 0 0 0-.271-.86l-2.141-2.194 2.913-.445a1 1 0 0 0 .754-.564L32 21.354l1.258 2.679a1 1 0 0 0 .754.564l2.913.445zM24 36h16v2H24zM26 42h12v2H26zM22 39h20v2H22z"/></g></svg>