<svg xmlns="http://www.w3.org/2000/svg" viewBox="0 0 64 64"><g data-name="10-Trophy"><path style="fill:#ffda4d" d="M25 54h16v4H25z"/><path style="fill:#d6e0eb" d="M23 45h20v4H23z"/><path style="fill:#fbfbfb" d="m40 25.35-3.5 3.58.83 5.07L33 31.61 28.67 34l.83-5.07-3.5-3.58 4.84-.74L33 20l2.16 4.61 4.84.74z"/><path d="m46 49 4 14H16l4-14h26zm-5 9v-4H25v4zM50 13l-6 32H22L14 1s12 12 36 12zM36.5 28.93l3.5-3.58-4.84-.74L33 20l-2.16 4.61-4.84.74 3.5 3.58-.83 5.07L33 31.61 37.33 34z" style="fill:#9c59a9"/><path d="M43 45H23v4h3a2 2 0 0 1 2-2h15z" style="fill:#a8b7d4"/><path d="M37.6 40a14 14 0 0 1-13.756-11.4L19.376 4.988A31.792 31.792 0 0 1 14 1l8 44h22l.937-5z" style="fill:#774e9d"/><path d="m14.075 1.072.014.013zM14.653 4.594 14 1l.653 3.594zM50 13c-14.733 0-24.935-4.52-30.624-8.012l.64 3.382c5.72 3.382 15.521 7.511 29.423 7.621z" style="fill:#b466c2"/><path d="m14 1 .075.072zM14.089 1.085a33.053 33.053 0 0 0 5.287 3.9 33.2 33.2 0 0 1-5.287-3.9zM27.856 60a6 6 0 0 1-5.789-7.579L23 49h-3l-4 14h34l-.857-3z" style="fill:#774e9d"/><path d="M40.948 25.033a1 1 0 0 0-.8-.671l-4.312-.66-1.934-4.126a1 1 0 0 0-1.81 0L30.161 23.7l-4.312.66a1 1 0 0 0-.564 1.687l3.147 3.219-.749 4.57a1 1 0 0 0 1.47 1.037L33 32.752l3.847 2.123a.991.991 0 0 0 .483.125 1 1 0 0 0 .987-1.162l-.749-4.57 3.147-3.219a1 1 0 0 0 .233-1.016zm-5.163 3.2a1 1 0 0 0-.272.861l.5 3.037-2.528-1.395a1 1 0 0 0-.966 0l-2.528 1.395.5-3.037a1 1 0 0 0-.272-.861l-2.138-2.187 2.914-.446a1 1 0 0 0 .754-.564L33 22.357l1.255 2.677a1 1 0 0 0 .754.564l2.914.446z"/><path d="m50.962 62.725-4-14A1 1 0 0 0 46 48h-2v-2a1 1 0 0 0 .982-.816l6-32A1 1 0 0 0 50 12C26.741 12 14.824.409 14.706.292a1 1 0 0 0-1.689.887l1.636 9 1.967-.358-1.137-6.255C19.89 6.936 30.924 13.7 48.8 13.99L43.17 44H22.835l-5.124-28.179-1.967.358 5.273 29A1 1 0 0 0 22 46v2h-2a1 1 0 0 0-.962.725l-4 14A1 1 0 0 0 16 64h34a1 1 0 0 0 .962-1.275zM17.326 62l3.428-12H38v-2H24v-2h18v2h-2v2h5.246l3.428 12z"/><path d="m15.015 12.179 1.97-.358.362 2-1.968.358zM41 53H25a1 1 0 0 0-1 1v4a1 1 0 0 0 1 1h16a1 1 0 0 0 1-1v-4a1 1 0 0 0-1-1zm-1 4H26v-2h14z"/></g></svg>