<svg xmlns="http://www.w3.org/2000/svg" viewBox="0 0 64 64"><g data-name="07-Trophy"><path d="M40 49H24a27.741 27.741 0 0 0 3.99-12.84L32 34l4.01 2.16A27.741 27.741 0 0 0 40 49z" style="fill:#ffab02"/><path style="fill:#ffcb02" d="M36.01 36.16 32 34l-4.01 2.16L19.02 41 22 26 11 16l14-2 7-13 6 13 15 2-11 10 2.98 15-8.97-4.84z"/><path style="fill:#fa7a31" d="M19 49h26v8H19z"/><path style="fill:#c73e36" d="M16 57h32v6H16z"/><path d="M19 49v8h26v-3H27a4 4 0 0 1-4-4v-1z" style="fill:#fe4f46"/><path d="M16 57v6h32v-2H23a3 3 0 0 1-3-3v-1z" style="fill:#ad362f"/><path d="M31.984 46a3 3 0 0 1-2.934-3.62C29.6 39.811 30 37 30 37l2-1 4.2 2.1a28.16 28.16 0 0 1-.19-1.94L32 34l-4.01 2.16A27.741 27.741 0 0 1 24 49h16a21.226 21.226 0 0 1-1.63-3z" style="fill:#ff9102"/><path style="fill:#ffcb02" d="m32 1-7 13 7 8V1z"/><path style="fill:#ffab02" d="m42 26 11-10-21 6 10 4z"/><path style="fill:#ffcb02" d="m53 16-15-2-6 8 21-6z"/><path style="fill:#ffda4d" d="m25 14-14 2 21 6-7-8zM38 14 32 1v21l6-8z"/><path style="fill:#ffab02" d="m32 34 4.01 2.16L44.98 41l-.008-.041L32 22v12z"/><path style="fill:#ffcb02" d="m32 22 12.972 18.959L42 26l-10-4z"/><path style="fill:#ff9102" d="M19.028 40.959 19.02 41l8.97-4.84L32 34V22L19.028 40.959z"/><path style="fill:#ffcb02" d="m22 26-2.972 14.959L32 22l-10 4z"/><path style="fill:#ffab02" d="m11 16 11 10 10-4-21-6z"/><path d="M24 56h2v2h-2z"/><path d="M53.955 15.7a1 1 0 0 0-.823-.693l-14.455-1.925L32.908.581A1 1 0 0 0 31.12.526l-6.761 12.556-13.5 1.928a1 1 0 0 0-.531 1.73l10.582 9.62-2.869 14.445A1 1 0 0 0 19.5 41.88l7.319-3.947A26.124 26.124 0 0 1 23.442 48H19a1 1 0 0 0-1 1v7h-2a1 1 0 0 0-1 1v6a1 1 0 0 0 1 1h32a1 1 0 0 0 1-1v-6a1 1 0 0 0-1-1h-2v-7a1 1 0 0 0-1-1h-4.442a26.124 26.124 0 0 1-3.373-10.067L44.5 41.88a1 1 0 0 0 1.455-1.075L43.091 26.36l10.582-9.62a1 1 0 0 0 .282-1.04zM38.245 48H37v2h7v6H28v2h19v4H17v-4h5v-2h-2v-6h15v-2h-9.245a29.2 29.2 0 0 0 3.2-11.219L32 35.136l3.049 1.645A29.2 29.2 0 0 0 38.245 48zm3.082-22.74a1 1 0 0 0-.308.935l2.565 12.917-11.109-5.992a1 1 0 0 0-.95 0l-11.109 5.992L22.981 26.2a1 1 0 0 0-.308-.935l-9.428-8.571 11.9-1.7a1 1 0 0 0 .738-.516l6.048-11.241 5.161 11.182a1 1 0 0 0 .776.572l12.868 1.716z"/><path d="M27 52h10v2H27z"/></g></svg>